o pipe-straight
v -4.666667 1.000000 0.000000
v 4.666667 1.000000 -0.000000
v 4.666667 0.707107 -0.707107
v -4.666667 0.707107 -0.707107
v 4.666667 -0.000000 -1.000000
v -4.666667 0.000000 -1.000000
v 4.666667 -0.707107 -0.707107
v -4.666667 -0.707107 -0.707107
v 4.666667 -1.000000 -0.000000
v -4.666667 -1.000000 0.000000
v 4.666667 -0.707107 0.707107
v -4.666667 -0.707107 0.707107
v 4.666667 -0.000000 1.000000
v -4.666667 0.000000 1.000000
v 4.666667 0.707107 0.707107
v -4.666667 0.707107 0.707107
v -5.000000 0.900000 0.000000
v 5.000000 0.900000 -0.000000
v -5.000000 0.636396 -0.636396
v 5.000000 0.636396 -0.636396
v -5.000000 0.000000 -0.900000
v 5.000000 -0.000000 -0.900000
v -5.000000 -0.636396 -0.636396
v 5.000000 -0.636396 -0.636396
v -5.000000 -0.900000 0.000000
v 5.000000 -0.900000 -0.000000
v -5.000000 -0.636396 0.636396
v 5.000000 -0.636396 0.636396
v -5.000000 0.000000 0.900000
v 5.000000 -0.000000 0.900000
v -5.000000 0.636396 0.636396
v 5.000000 0.636396 0.636396
v -5.000000 1.500000 0.000000
v -5.000000 1.060660 -1.060660
v -4.666667 1.060660 -1.060660
v -5.000000 0.000000 -1.500000
v -4.666667 0.000000 -1.500000
v -5.000000 -1.060660 -1.060660
v -4.666667 -1.060660 -1.060660
v -5.000000 -1.500000 0.000000
v -4.666667 -1.500000 0.000000
v -5.000000 -1.060660 1.060660
v -4.666667 -1.060660 1.060660
v -5.000000 0.000000 1.500000
v -4.666667 0.000000 1.500000
v -5.000000 1.060660 1.060660
v -4.666667 1.060660 1.060660
v -4.666667 1.500000 0.000000
v 5.000000 1.060661 -1.060660
v 5.000000 1.500001 -0.000000
v 4.666667 1.500001 -0.000000
v 5.000000 0.000001 -1.500000
v 5.000000 -1.060659 -1.060660
v 5.000000 -1.499999 -0.000000
v 5.000000 -1.060659 1.060660
v 5.000000 0.000001 1.500000
v 5.000000 1.060661 1.060660
v 4.666667 1.060661 -1.060660
v 4.666667 0.000001 -1.500000
v 4.666667 -1.060659 -1.060660
v 4.666667 -1.499999 -0.000000
v 4.666667 -1.060659 1.060660
v 4.666667 0.000001 1.500000
v 4.666667 1.060661 1.060660
vn 1.0000 -0.0000 -0.0000
vn -1.0000 -0.0000 -0.0000
vn -0.0000 0.9239 0.3827
vn -0.0000 0.3827 0.9239
vn -0.0000 -0.3827 0.9239
vn -0.0000 -0.9239 0.3827
vn -0.0000 -0.9239 -0.3827
vn -0.0000 -0.3827 -0.9239
vn -0.0000 0.3827 -0.9239
vn -0.0000 0.9239 -0.3827
vt 0.014959 0.014959
vt 0.450359 0.014959
vt 0.045510 0.728493
vt 0.014959 0.632231
vt 0.450359 0.632231
vt 0.810464 0.736791
vt 0.414567 0.632231
vt 0.846256 0.772584
vt 0.414567 0.014959
vt 0.045510 0.779111
vt 0.334030 0.632231
vt 0.363948 0.632231
vt 0.846256 0.823202
vt 0.334030 0.014959
vt 0.363948 0.014959
vt 0.081303 0.814904
vt 0.810464 0.858995
vt 0.298237 0.632231
vt 0.298237 0.014959
vt 0.131921 0.814904
vt 0.217700 0.632231
vt 0.247618 0.632231
vt 0.759845 0.858995
vt 0.217700 0.014959
vt 0.247618 0.014959
vt 0.167714 0.779111
vt 0.181907 0.632231
vt 0.724053 0.823202
vt 0.181907 0.014959
vt 0.167714 0.728493
vt 0.101370 0.632231
vt 0.131289 0.632231
vt 0.724053 0.772584
vt 0.101370 0.014959
vt 0.131289 0.014959
vt 0.131921 0.692700
vt 0.759845 0.736791
vt 0.065578 0.632231
vt 0.065578 0.014959
vt 0.081303 0.692700
vt 0.558048 0.014959
vt 0.803343 0.014959
vt 0.264845 0.731024
vt 0.594709 0.742901
vt 0.558048 0.676322
vt 0.803343 0.676322
vt 0.835557 0.014959
vt 0.297058 0.698810
vt 0.835556 0.676322
vt 0.549152 0.742901
vt 0.695655 0.014959
vt 0.881113 0.014959
vt 0.342615 0.698810
vt 0.695655 0.676322
vt 0.881113 0.676322
vt 0.516939 0.775115
vt 0.374828 0.731024
vt 0.727868 0.014959
vt 0.516939 0.820671
vt 0.727868 0.676322
vt 0.587966 0.014959
vt 0.773425 0.014959
vt 0.374828 0.776580
vt 0.587966 0.676322
vt 0.773425 0.676322
vt 0.549152 0.852885
vt 0.620180 0.014959
vt 0.342615 0.808794
vt 0.620179 0.676322
vt 0.594709 0.852885
vt 0.480278 0.014959
vt 0.665736 0.014959
vt 0.297058 0.808794
vt 0.480278 0.676322
vt 0.665736 0.676322
vt 0.626922 0.820671
vt 0.512491 0.014959
vt 0.264845 0.776580
vt 0.512491 0.676322
vt 0.626922 0.775115
vt 0.933077 0.334029
vt 0.985041 0.144576
vt 0.228183 0.715838
vt 0.985041 0.090887
vt 0.281872 0.662149
vt 0.962996 0.090887
vt 0.014959 0.791766
vt 0.357800 0.662149
vt 0.980735 0.835857
vt 0.985041 0.014959
vt 0.958690 0.835857
vt 0.962996 0.014959
vt 0.068648 0.845455
vt 0.411489 0.715838
vt 0.980735 0.782168
vt 0.958690 0.782168
vt 0.144576 0.845455
vt 0.411489 0.791766
vt 0.933077 0.623181
vt 0.980735 0.706240
vt 0.911032 0.623181
vt 0.958690 0.706240
vt 0.198265 0.791766
vt 0.357800 0.845455
vt 0.933077 0.569492
vt 0.911032 0.569492
vt 0.198265 0.715838
vt 0.281872 0.845455
vt 0.933077 0.463646
vt 0.933077 0.493565
vt 0.144576 0.662149
vt 0.911032 0.463646
vt 0.911032 0.493565
vt 0.228183 0.791766
vt 0.933077 0.409957
vt 0.911032 0.409957
vt 0.068648 0.662149
vt 0.911032 0.334029
vt 0.962996 0.144576
vt 0.014959 0.715838
vt 0.533967 0.706240
vt 0.906726 0.782168
vt 0.609894 0.706240
vt 0.906726 0.835857
vt 0.911032 0.174494
vt 0.928771 0.835857
vt 0.933077 0.174494
vt 0.823118 0.706240
vt 0.480278 0.759929
vt 0.906726 0.706240
vt 0.962996 0.304111
vt 0.480278 0.835857
vt 0.962996 0.250422
vt 0.533967 0.889546
vt 0.962996 0.174494
vt 0.911032 0.144576
vt 0.609894 0.889546
vt 0.911032 0.090887
vt 0.663583 0.835857
vt 0.911032 0.014959
vt 0.911032 0.304111
vt 0.663583 0.759929
vt 0.911032 0.250422
vt 0.928771 0.782168
vt 0.876807 0.759929
vt 0.928771 0.706240
vt 0.985041 0.304111
vt 0.876807 0.835857
vt 0.823118 0.889546
vt 0.985041 0.250422
vt 0.985041 0.174494
vt 0.933077 0.144576
vt 0.747191 0.889546
vt 0.933077 0.090887
vt 0.693502 0.835857
vt 0.933077 0.014959
vt 0.933077 0.304111
vt 0.693502 0.759929
vt 0.747191 0.706240
vt 0.933077 0.250422
s 0
usemtl Material.001
f 26/66/1 54/134/1 53/132/1 24/59/1
f 56/139/1 55/137/1 28/70/1 30/76/1
f 7/17/2 5/13/2 59/148/2 60/149/2
f 15/37/2 13/33/2 63/158/2 64/159/2
f 18/44/1 50/123/1 57/142/1 32/80/1
f 52/129/1 22/56/1 24/59/1 53/132/1
f 9/23/2 7/17/2 60/149/2 61/153/2
f 2/6/2 15/37/2 64/159/2 51/128/2
f 49/121/1 50/123/1 18/44/1 20/50/1
f 16/39/3 15/38/3 2/4/3 1/1/3
f 12/30/1 14/36/1 45/111/1 43/107/1
f 14/34/4 13/31/4 15/38/4 16/39/4
f 23/57/2 38/94/2 40/98/2 25/63/2
f 12/29/5 11/27/5 13/32/5 14/35/5
f 27/68/2 42/104/2 44/108/2 29/73/2
f 10/24/6 9/21/6 11/27/6 12/29/6
f 6/16/1 8/20/1 39/97/1 37/93/1
f 8/19/7 7/18/7 9/22/7 10/25/7
f 14/36/1 16/40/1 47/117/1 45/111/1
f 6/14/8 5/11/8 7/18/8 8/19/8
f 17/43/2 31/78/2 46/114/2 33/83/2
f 4/9/9 3/7/9 5/12/9 6/15/9
f 23/57/2 21/53/2 36/88/2 38/94/2
f 1/2/10 2/5/10 3/7/10 4/9/10
f 17/41/7 18/45/7 32/79/7 31/77/7
f 31/77/8 32/79/8 30/74/8 29/71/8
f 29/72/9 30/75/9 28/69/9 27/67/9
f 27/67/10 28/69/10 26/64/10 25/61/10
f 25/62/3 26/65/3 24/60/3 23/58/3
f 23/58/4 24/60/4 22/54/4 21/51/4
f 21/52/5 22/55/5 20/49/5 19/47/5
f 19/47/6 20/49/6 18/46/6 17/42/6
f 36/88/2 21/53/2 19/48/2 34/85/2
f 49/121/1 20/50/1 22/56/1 52/129/1
f 27/68/2 25/63/2 40/98/2 42/104/2
f 26/66/1 28/70/1 55/137/1 54/134/1
f 46/114/2 31/78/2 29/73/2 44/108/2
f 56/139/1 30/76/1 32/80/1 57/142/1
f 46/115/3 47/116/3 48/118/3 33/81/3
f 44/109/4 45/112/4 47/116/4 46/115/4
f 42/105/5 43/106/5 45/113/5 44/110/5
f 40/99/6 41/101/6 43/106/6 42/105/6
f 38/95/7 39/96/7 41/102/7 40/100/7
f 36/89/8 37/91/8 39/96/8 38/95/8
f 34/84/9 35/86/9 37/92/9 36/90/9
f 33/82/10 48/119/10 35/86/10 34/84/10
f 4/10/1 6/16/1 37/93/1 35/87/1
f 10/26/1 12/30/1 43/107/1 41/103/1
f 1/3/1 4/10/1 35/87/1 48/120/1
f 16/40/1 1/3/1 48/120/1 47/117/1
f 8/20/1 10/26/1 41/103/1 39/97/1
f 51/126/10 50/124/10 49/122/10 58/144/10
f 58/144/9 49/122/9 52/130/9 59/146/9
f 59/147/8 52/131/8 53/133/8 60/150/8
f 60/150/7 53/133/7 54/135/7 61/151/7
f 61/152/6 54/136/6 55/138/6 62/154/6
f 62/154/5 55/138/5 56/140/5 63/156/5
f 63/157/4 56/141/4 57/143/4 64/160/4
f 64/160/3 57/143/3 50/125/3 51/127/3
f 13/33/2 11/28/2 62/155/2 63/158/2
f 5/13/2 3/8/2 58/145/2 59/148/2
f 11/28/2 9/23/2 61/153/2 62/155/2
f 3/8/2 2/6/2 51/128/2 58/145/2
f 17/43/2 33/83/2 34/85/2 19/48/2
